<svg xmlns="http://www.w3.org/2000/svg" width="1100" height="900" viewBox="0 0 1100 900" role="img" aria-label="Ten Deep themes"><title>Systemdoc Deep theme family</title><defs>
<linearGradient id="g0"><stop stop-color="#43e8ff"/><stop offset="1" stop-color="#ff5cac"/></linearGradient>
<linearGradient id="g1"><stop stop-color="#b99aff"/><stop offset="1" stop-color="#5de6ff"/></linearGradient>
<linearGradient id="g2"><stop stop-color="#44f2c4"/><stop offset="1" stop-color="#62a8ff"/></linearGradient>
<linearGradient id="g3"><stop stop-color="#ffbb66"/><stop offset="1" stop-color="#ff6b9c"/></linearGradient>
<linearGradient id="g4"><stop stop-color="#ff83c7"/><stop offset="1" stop-color="#b59aff"/></linearGradient>
<linearGradient id="g5"><stop stop-color="#b4becd"/><stop offset="1" stop-color="#889bb8"/></linearGradient>
<linearGradient id="g6"><stop stop-color="#a3c49b"/><stop offset="1" stop-color="#75b8ac"/></linearGradient>
<linearGradient id="g7"><stop stop-color="#c3a1bc"/><stop offset="1" stop-color="#999dc8"/></linearGradient>
<linearGradient id="g8"><stop stop-color="#cca789"/><stop offset="1" stop-color="#b98f96"/></linearGradient>
<linearGradient id="g9"><stop stop-color="#94add8"/><stop offset="1" stop-color="#9991bf"/></linearGradient>
</defs>
<g transform="translate(0,0)"><rect width="1100" height="90" fill="#070b14"/><rect x="250" y="14" width="824" height="60" rx="5" fill="#0e1626"/><rect x="250" y="14" width="824" height="3" fill="url(#g0)"/><text x="24" y="51" fill="#43e8ff" font-family="monospace" font-size="22" font-weight="bold">Deep Navy</text><rect x="270" y="30" width="245" height="29" fill="url(#g0)"/><text x="280" y="51" fill="#070b14" font-family="monospace" font-size="18" font-weight="bold">▸ selected workload</text><text x="545" y="50" fill="#edf5ff" font-family="monospace" font-size="18">Sharp text</text><text x="685" y="50" fill="#8c9db8" font-family="monospace" font-size="18">Muted context</text><text x="875" y="50" fill="#53f5af" font-family="monospace" font-size="18">● running</text></g>
<g transform="translate(0,90)"><rect width="1100" height="90" fill="#0b0914"/><rect x="250" y="14" width="824" height="60" rx="5" fill="#171226"/><rect x="250" y="14" width="824" height="3" fill="url(#g1)"/><text x="24" y="51" fill="#b99aff" font-family="monospace" font-size="22" font-weight="bold">Deep Violet</text><rect x="270" y="30" width="245" height="29" fill="url(#g1)"/><text x="280" y="51" fill="#0b0914" font-family="monospace" font-size="18" font-weight="bold">▸ selected workload</text><text x="545" y="50" fill="#edf5ff" font-family="monospace" font-size="18">Sharp text</text><text x="685" y="50" fill="#8c9db8" font-family="monospace" font-size="18">Muted context</text><text x="875" y="50" fill="#53f5af" font-family="monospace" font-size="18">● running</text></g>
<g transform="translate(0,180)"><rect width="1100" height="90" fill="#060e12"/><rect x="250" y="14" width="824" height="60" rx="5" fill="#0c1b23"/><rect x="250" y="14" width="824" height="3" fill="url(#g2)"/><text x="24" y="51" fill="#44f2c4" font-family="monospace" font-size="22" font-weight="bold">Deep Teal</text><rect x="270" y="30" width="245" height="29" fill="url(#g2)"/><text x="280" y="51" fill="#060e12" font-family="monospace" font-size="18" font-weight="bold">▸ selected workload</text><text x="545" y="50" fill="#edf5ff" font-family="monospace" font-size="18">Sharp text</text><text x="685" y="50" fill="#8c9db8" font-family="monospace" font-size="18">Muted context</text><text x="875" y="50" fill="#53f5af" font-family="monospace" font-size="18">● running</text></g>
<g transform="translate(0,270)"><rect width="1100" height="90" fill="#100b0a"/><rect x="250" y="14" width="824" height="60" rx="5" fill="#211613"/><rect x="250" y="14" width="824" height="3" fill="url(#g3)"/><text x="24" y="51" fill="#ffbb66" font-family="monospace" font-size="22" font-weight="bold">Deep Ember</text><rect x="270" y="30" width="245" height="29" fill="url(#g3)"/><text x="280" y="51" fill="#100b0a" font-family="monospace" font-size="18" font-weight="bold">▸ selected workload</text><text x="545" y="50" fill="#edf5ff" font-family="monospace" font-size="18">Sharp text</text><text x="685" y="50" fill="#8c9db8" font-family="monospace" font-size="18">Muted context</text><text x="875" y="50" fill="#53f5af" font-family="monospace" font-size="18">● running</text></g>
<g transform="translate(0,360)"><rect width="1100" height="90" fill="#100a12"/><rect x="250" y="14" width="824" height="60" rx="5" fill="#211322"/><rect x="250" y="14" width="824" height="3" fill="url(#g4)"/><text x="24" y="51" fill="#ff83c7" font-family="monospace" font-size="22" font-weight="bold">Deep Rose</text><rect x="270" y="30" width="245" height="29" fill="url(#g4)"/><text x="280" y="51" fill="#100a12" font-family="monospace" font-size="18" font-weight="bold">▸ selected workload</text><text x="545" y="50" fill="#edf5ff" font-family="monospace" font-size="18">Sharp text</text><text x="685" y="50" fill="#8c9db8" font-family="monospace" font-size="18">Muted context</text><text x="875" y="50" fill="#53f5af" font-family="monospace" font-size="18">● running</text></g>
<g transform="translate(0,450)"><rect width="1100" height="90" fill="#090b0e"/><rect x="250" y="14" width="824" height="60" rx="5" fill="#14181e"/><rect x="250" y="14" width="824" height="3" fill="url(#g5)"/><text x="24" y="51" fill="#b4becd" font-family="monospace" font-size="22" font-weight="bold">Deep Obsidian</text><rect x="270" y="30" width="245" height="29" fill="url(#g5)"/><text x="280" y="51" fill="#090b0e" font-family="monospace" font-size="18" font-weight="bold">▸ selected workload</text><text x="545" y="50" fill="#edf5ff" font-family="monospace" font-size="18">Sharp text</text><text x="685" y="50" fill="#8c9db8" font-family="monospace" font-size="18">Muted context</text><text x="875" y="50" fill="#53f5af" font-family="monospace" font-size="18">● running</text></g>
<g transform="translate(0,540)"><rect width="1100" height="90" fill="#080d0a"/><rect x="250" y="14" width="824" height="60" rx="5" fill="#121c16"/><rect x="250" y="14" width="824" height="3" fill="url(#g6)"/><text x="24" y="51" fill="#a3c49b" font-family="monospace" font-size="22" font-weight="bold">Deep Forest</text><rect x="270" y="30" width="245" height="29" fill="url(#g6)"/><text x="280" y="51" fill="#080d0a" font-family="monospace" font-size="18" font-weight="bold">▸ selected workload</text><text x="545" y="50" fill="#edf5ff" font-family="monospace" font-size="18">Sharp text</text><text x="685" y="50" fill="#8c9db8" font-family="monospace" font-size="18">Muted context</text><text x="875" y="50" fill="#53f5af" font-family="monospace" font-size="18">● running</text></g>
<g transform="translate(0,630)"><rect width="1100" height="90" fill="#100b12"/><rect x="250" y="14" width="824" height="60" rx="5" fill="#201624"/><rect x="250" y="14" width="824" height="3" fill="url(#g7)"/><text x="24" y="51" fill="#c3a1bc" font-family="monospace" font-size="22" font-weight="bold">Deep Aubergine</text><rect x="270" y="30" width="245" height="29" fill="url(#g7)"/><text x="280" y="51" fill="#100b12" font-family="monospace" font-size="18" font-weight="bold">▸ selected workload</text><text x="545" y="50" fill="#edf5ff" font-family="monospace" font-size="18">Sharp text</text><text x="685" y="50" fill="#8c9db8" font-family="monospace" font-size="18">Muted context</text><text x="875" y="50" fill="#53f5af" font-family="monospace" font-size="18">● running</text></g>
<g transform="translate(0,720)"><rect width="1100" height="90" fill="#100c09"/><rect x="250" y="14" width="824" height="60" rx="5" fill="#211913"/><rect x="250" y="14" width="824" height="3" fill="url(#g8)"/><text x="24" y="51" fill="#cca789" font-family="monospace" font-size="22" font-weight="bold">Deep Copper</text><rect x="270" y="30" width="245" height="29" fill="url(#g8)"/><text x="280" y="51" fill="#100c09" font-family="monospace" font-size="18" font-weight="bold">▸ selected workload</text><text x="545" y="50" fill="#edf5ff" font-family="monospace" font-size="18">Sharp text</text><text x="685" y="50" fill="#8c9db8" font-family="monospace" font-size="18">Muted context</text><text x="875" y="50" fill="#53f5af" font-family="monospace" font-size="18">● running</text></g>
<g transform="translate(0,810)"><rect width="1100" height="90" fill="#080b13"/><rect x="250" y="14" width="824" height="60" rx="5" fill="#111a2a"/><rect x="250" y="14" width="824" height="3" fill="url(#g9)"/><text x="24" y="51" fill="#94add8" font-family="monospace" font-size="22" font-weight="bold">Deep Midnight</text><rect x="270" y="30" width="245" height="29" fill="url(#g9)"/><text x="280" y="51" fill="#080b13" font-family="monospace" font-size="18" font-weight="bold">▸ selected workload</text><text x="545" y="50" fill="#edf5ff" font-family="monospace" font-size="18">Sharp text</text><text x="685" y="50" fill="#8c9db8" font-family="monospace" font-size="18">Muted context</text><text x="875" y="50" fill="#53f5af" font-family="monospace" font-size="18">● running</text></g>
</svg>
